<?xml version="1.0" encoding="UTF-8"?>
<svg id="Layer_1" data-name="Layer 1" xmlns="http://www.w3.org/2000/svg" xmlns:xlink="http://www.w3.org/1999/xlink" viewBox="0 0 117 33">
  <defs>
    <style>
      .cls-1 {
        clip-path: url(#clippath);
      }

      .cls-2, .cls-3 {
        fill: none;
      }

      .cls-2, .cls-4 {
        stroke-width: 0px;
      }

      .cls-3 {
        stroke: #6d6e71;
        stroke-width: 1px;
      }

      .cls-5 {
        clip-path: url(#clippath-1);
      }

      .cls-6 {
        clip-path: url(#clippath-2);
      }

      .cls-4 {
        fill: #6d6e71;
      }
    </style>
    <clipPath id="clippath">
      <rect class="cls-2" x=".53" y=".37" width="115.94" height="32.26"/>
    </clipPath>
    <clipPath id="clippath-1">
      <rect class="cls-2" x=".53" y=".37" width="115.94" height="32.26"/>
    </clipPath>
    <clipPath id="clippath-2">
      <rect class="cls-2" x=".53" y=".37" width="115.94" height="32.26"/>
    </clipPath>
  </defs>
  <g class="cls-1">
    <path class="cls-4" d="M92.48,24.66h1.61v-10.2h-1.61v10.2ZM106.96,18.13l-1.84,4.42h-.05l-1.91-4.42h-1.73l2.87,6.18-1.64,3.44h1.68l4.42-9.62h-1.79ZM97.84,23.5c-.53,0-1.26-.25-1.26-.87,0-.79.92-1.09,1.71-1.09.71,0,1.04.14,1.47.34-.12.95-.98,1.61-1.91,1.61M98.04,17.91c-1.16,0-2.37.49-2.87,1.56l1.43.56c.31-.56.87-.75,1.47-.75.83,0,1.68.47,1.69,1.31v.11c-.29-.16-.92-.39-1.68-.39-1.54,0-3.11.8-3.11,2.3,0,1.37,1.26,2.24,2.68,2.24,1.08,0,1.68-.46,2.05-1h.05v.79h1.55v-3.91c0-1.81-1.43-2.82-3.27-2.82M88.1,19.38h-2.29v-3.5h2.29c1.2,0,1.88.94,1.88,1.75s-.68,1.75-1.88,1.75M88.06,14.46h-3.85v10.2h1.61v-3.86h2.24c1.78,0,3.53-1.22,3.53-3.17s-1.75-3.17-3.53-3.17M67.05,23.5c-1.11,0-2.04-.88-2.04-2.09s.93-2.12,2.04-2.12,1.96.89,1.96,2.12-.86,2.09-1.96,2.09M68.9,18.7h-.06c-.36-.41-1.06-.78-1.93-.78-1.83,0-3.51,1.52-3.51,3.48s1.68,3.46,3.51,3.46c.88,0,1.57-.37,1.93-.79h.06v.5c0,1.33-.75,2.04-1.96,2.04-.99,0-1.6-.67-1.85-1.24l-1.4.55c.4.92,1.47,2.05,3.25,2.05,1.89,0,3.49-1.05,3.49-3.61v-6.23h-1.53v.56h0ZM71.54,24.66h1.61v-10.2h-1.61v10.2ZM75.52,21.29c-.04-1.34,1.1-2.02,1.92-2.02.64,0,1.18.3,1.36.74l-3.28,1.29ZM80.52,20.14c-.31-.78-1.24-2.21-3.14-2.21s-3.46,1.41-3.46,3.47c0,1.94,1.55,3.47,3.64,3.47,1.68,0,2.65-.97,3.06-1.54l-1.25-.79c-.42.58-.98.96-1.81.96s-1.4-.36-1.78-1.05l4.9-1.92-.17-.39ZM41.48,18.99v1.47h3.72c-.11.83-.4,1.43-.85,1.85-.54.51-1.39,1.08-2.87,1.08-2.29,0-4.08-1.75-4.08-3.92s1.79-3.92,4.08-3.92c1.23,0,2.14.46,2.8,1.05l1.1-1.04c-.93-.84-2.17-1.48-3.9-1.48-3.14,0-5.78,2.42-5.78,5.39s2.64,5.39,5.78,5.39c1.69,0,2.97-.53,3.97-1.51,1.03-.97,1.35-2.34,1.35-3.44,0-.34-.03-.66-.08-.92h-5.23ZM51.02,23.5c-1.11,0-2.07-.87-2.07-2.1s.96-2.1,2.07-2.1,2.07.86,2.07,2.1c0,1.23-.96,2.1-2.07,2.1M51.02,17.93c-2.03,0-3.68,1.46-3.68,3.47s1.65,3.47,3.68,3.47,3.68-1.47,3.68-3.47-1.65-3.47-3.68-3.47M59.05,23.5c-1.11,0-2.07-.87-2.07-2.1s.96-2.1,2.07-2.1,2.07.86,2.07,2.1-.96,2.1-2.07,2.1M59.05,17.93c-2.03,0-3.68,1.46-3.68,3.47s1.65,3.47,3.68,3.47,3.68-1.47,3.68-3.47c0-2.01-1.65-3.47-3.68-3.47"/>
    <path class="cls-4" d="M41.2,8.54c0,.68-.21,1.23-.64,1.63-.49.48-1.12.72-1.9.72s-1.38-.24-1.9-.73-.78-1.1-.78-1.82.26-1.33.78-1.82c.52-.49,1.16-.74,1.9-.74.37,0,.72.07,1.06.2.34.14.61.32.81.55l-.45.43c-.34-.39-.81-.58-1.42-.58-.54,0-1.01.18-1.41.54-.4.36-.6.83-.6,1.41s.2,1.05.6,1.41c.4.36.87.54,1.41.54.58,0,1.06-.18,1.44-.55.25-.24.4-.57.43-.99h-1.88v-.59h2.51c.03.13.04.25.04.37"/>
  </g>
  <polygon class="cls-4" points="45.17 6.5 42.81 6.5 42.81 8.05 44.94 8.05 44.94 8.64 42.81 8.64 42.81 10.19 45.17 10.19 45.17 10.79 42.15 10.79 42.15 5.89 45.17 5.89 45.17 6.5"/>
  <polygon class="cls-4" points="47.97 10.79 47.31 10.79 47.31 6.5 45.86 6.5 45.86 5.89 49.41 5.89 49.41 6.5 47.97 6.5 47.97 10.79"/>
  <rect class="cls-4" x="51.98" y="5.89" width=".66" height="4.9"/>
  <polygon class="cls-4" points="55.59 10.79 54.93 10.79 54.93 6.5 53.49 6.5 53.49 5.89 57.04 5.89 57.04 6.5 55.59 6.5 55.59 10.79"/>
  <g class="cls-5">
    <path class="cls-4" d="M60.46,9.75c.38.37.85.55,1.4.55s1.02-.18,1.4-.55c.38-.37.58-.84.58-1.41s-.19-1.04-.58-1.4c-.38-.37-.85-.55-1.4-.55s-1.02.18-1.4.55c-.38.37-.57.83-.57,1.4s.19,1.04.57,1.41M63.76,10.16c-.51.49-1.14.74-1.9.74s-1.39-.25-1.9-.74-.76-1.1-.76-1.82.25-1.32.76-1.82c.51-.49,1.14-.74,1.9-.74s1.38.25,1.89.75c.51.5.76,1.1.76,1.81s-.25,1.32-.76,1.82"/>
  </g>
  <polygon class="cls-4" points="65.46 10.79 65.46 5.89 66.27 5.89 68.78 9.7 68.81 9.7 68.78 8.76 68.78 5.89 69.44 5.89 69.44 10.79 68.75 10.79 66.12 6.8 66.09 6.8 66.12 7.74 66.12 10.79 65.46 10.79"/>
  <g class="cls-6">
    <path class="cls-4" d="M65.46,10.79v-4.9h.81l2.51,3.81h.03l-.03-.94v-2.86h.66v4.9h-.69l-2.63-3.99h-.03l.03.94v3.05h-.66ZM60.46,9.75c.38.37.85.55,1.4.55s1.02-.18,1.4-.55c.38-.37.58-.84.58-1.41s-.19-1.04-.58-1.41c-.38-.37-.85-.55-1.4-.55s-1.02.18-1.4.55c-.38.37-.57.84-.57,1.41s.19,1.04.57,1.41M63.76,10.16c-.51.49-1.14.74-1.9.74s-1.39-.25-1.9-.74c-.51-.49-.76-1.1-.76-1.82s.25-1.32.76-1.82c.51-.49,1.14-.74,1.9-.74s1.38.25,1.89.75c.51.5.76,1.1.76,1.81s-.25,1.32-.76,1.82M55.59,10.79h-.67v-4.29h-1.44v-.6h3.55v.6h-1.44v4.29ZM51.98,5.89h.66v4.9h-.66v-4.9ZM47.97,10.79h-.67v-4.29h-1.44v-.6h3.55v.6h-1.44v4.29ZM45.17,6.49h-2.35v1.55h2.12v.59h-2.12v1.55h2.35v.6h-3.02v-4.9h3.02v.6ZM41.2,8.54c0,.68-.21,1.23-.64,1.63-.49.48-1.12.72-1.9.72s-1.38-.24-1.9-.73-.78-1.1-.78-1.82.26-1.33.78-1.82c.52-.49,1.16-.74,1.9-.74.37,0,.72.07,1.06.2.34.14.61.32.81.55l-.45.43c-.34-.39-.81-.58-1.42-.58-.54,0-1.01.18-1.41.54-.4.36-.6.83-.6,1.41s.2,1.05.6,1.41c.4.36.87.54,1.41.54.58,0,1.06-.18,1.44-.55.25-.24.4-.57.43-.99h-1.88v-.59h2.51c.03.13.04.25.04.37"/>
    <path class="cls-4" d="M23.41,20.8l4.05-2.21c.78-.4,1.31-1.17,1.31-2.07s-.52-1.66-1.29-2.06h0s-4.07-2.24-4.07-2.24l-4.52,4.28,4.54,4.3ZM9.18,25.66c.41.77,1.26,1.33,2.22,1.33.46,0,.89-.12,1.26-.32l.03-.02,9.94-5.43-4.38-4.14-9,8.52-.07.07ZM8.93,8.25s0,.07,0,.1v16.29s0,.07,0,.1l8.71-8.25-8.71-8.25ZM22.62,11.79l-9.93-5.45c-.38-.21-.81-.33-1.28-.33-.97,0-1.82.55-2.22,1.33l.07.07,9,8.52,4.36-4.13Z"/>
    <path class="cls-3" d="M4.89.87h107.22c2.13,0,3.86,1.61,3.86,3.61v24.05c0,1.99-1.73,3.61-3.86,3.61H4.89c-2.13,0-3.86-1.61-3.86-3.61V4.48c0-1.99,1.73-3.61,3.86-3.61Z"/>
  </g>
</svg>