<?xml version="1.0" encoding="UTF-8"?>
<svg id="Layer_1" data-name="Layer 1" xmlns="http://www.w3.org/2000/svg" xmlns:xlink="http://www.w3.org/1999/xlink" viewBox="0 0 117 33">
  <defs>
    <style>
      .cls-1 {
        clip-path: url(#clippath);
      }

      .cls-2, .cls-3 {
        fill: none;
      }

      .cls-2, .cls-4 {
        stroke-width: 0px;
      }

      .cls-3 {
        stroke: #6d6e71;
        stroke-width: 1px;
      }

      .cls-5 {
        clip-path: url(#clippath-1);
      }

      .cls-6 {
        clip-path: url(#clippath-3);
      }

      .cls-7 {
        clip-path: url(#clippath-2);
      }

      .cls-4 {
        fill: #6d6e71;
      }
    </style>
    <clipPath id="clippath">
      <rect class="cls-2" x=".53" y=".37" width="115.94" height="32.26"/>
    </clipPath>
    <clipPath id="clippath-1">
      <rect class="cls-2" x=".53" y=".37" width="115.94" height="32.26"/>
    </clipPath>
    <clipPath id="clippath-2">
      <rect class="cls-2" x=".53" y=".37" width="115.94" height="32.26"/>
    </clipPath>
    <clipPath id="clippath-3">
      <rect class="cls-2" x=".53" y=".37" width="115.94" height="32.26"/>
    </clipPath>
  </defs>
  <g class="cls-1">
    <path class="cls-4" d="M74.79,15.85v1.87h-1.17v1.23h1.17v4.16c0,1.42.64,1.99,2.26,1.99.28,0,.56-.03.79-.08v-1.21c-.2.02-.33.03-.56.03-.72,0-1.04-.34-1.04-1.11v-3.79h1.6v-1.23h-1.6v-1.87h-1.46Z"/>
    <path class="cls-4" d="M81.96,23.91c-1.27,0-1.98-.93-1.98-2.54s.71-2.53,1.98-2.53,1.98.93,1.98,2.53-.72,2.54-1.98,2.54M81.96,25.2c2.15,0,3.47-1.44,3.47-3.83s-1.33-3.83-3.47-3.83-3.48,1.45-3.48,3.83,1.32,3.83,3.48,3.83"/>
    <path class="cls-4" d="M86.57,25.06h1.46v-4.35c0-1.04.78-1.73,1.88-1.73.26,0,.69.05.81.09v-1.43c-.16-.04-.43-.06-.65-.06-.96,0-1.78.53-1.99,1.25h-.11v-1.13h-1.4v7.38Z"/>
    <path class="cls-4" d="M96.14,23.07c-.27.58-.87.89-1.75.89-1.17,0-1.92-.82-1.97-2.11v-.08h5.21v-.51c0-2.32-1.24-3.72-3.29-3.72s-3.4,1.5-3.4,3.85,1.29,3.81,3.41,3.81c1.69,0,2.86-.81,3.2-2.13h-1.4ZM94.33,18.78c1.08,0,1.78.75,1.82,1.91h-3.73c.08-1.15.83-1.91,1.91-1.91"/>
    <path class="cls-4" d="M65.24,22.34c.11,1.81,1.62,2.97,3.87,2.97,2.4,0,3.9-1.21,3.9-3.15,0-1.52-.86-2.37-2.93-2.85l-1.12-.27c-1.32-.31-1.85-.72-1.85-1.45,0-.91.83-1.51,2.07-1.51s1.99.58,2.14,1.52h1.53c-.09-1.71-1.59-2.91-3.65-2.91-2.21,0-3.68,1.2-3.68,3,0,1.49.84,2.37,2.67,2.8l1.31.31c1.34.32,1.93.78,1.93,1.55,0,.9-.93,1.55-2.19,1.55-1.35,0-2.29-.61-2.43-1.57h-1.56Z"/>
    <path class="cls-4" d="M49.74,23.87c-1.22,0-1.99-.96-1.99-2.5s.76-2.51,1.99-2.51,1.97.94,1.97,2.5-.74,2.51-1.98,2.51M50.15,17.56c-1,0-1.87.5-2.32,1.34h-.11v-1.22h-1.4v9.83h1.46v-3.57h.11c.39.78,1.22,1.24,2.27,1.24,1.86,0,3.05-1.47,3.05-3.81s-1.19-3.81-3.06-3.81"/>
    <path class="cls-4" d="M57.9,23.87c-1.22,0-1.98-.96-1.98-2.5s.76-2.51,1.99-2.51,1.97.94,1.97,2.5-.74,2.51-1.98,2.51M58.31,17.56c-1,0-1.87.5-2.32,1.34h-.11v-1.22h-1.4v9.83h1.46v-3.57h.12c.39.78,1.22,1.24,2.27,1.24,1.86,0,3.05-1.47,3.05-3.81s-1.19-3.81-3.06-3.81"/>
  </g>
  <path class="cls-4" d="M40.8,16.77h.12l1.47,4.28h-3.06l1.47-4.28ZM43.72,25.06h1.67l-3.66-10.13h-1.69l-3.66,10.13h1.61l.93-2.69h3.86l.93,2.69Z"/>
  <g class="cls-5">
    <path class="cls-4" d="M38.12,7.98h.92c1.01,0,1.61.64,1.61,1.75s-.59,1.76-1.61,1.76h-.92v-3.5ZM37.36,7.29v4.89h1.76c1.46,0,2.3-.9,2.3-2.46s-.85-2.43-2.3-2.43h-1.76Z"/>
    <path class="cls-4" d="M44.01,11.6c-.63,0-.99-.46-.99-1.27s.36-1.27.99-1.27.99.47.99,1.27-.36,1.27-.99,1.27M44.01,12.25c1.08,0,1.74-.72,1.74-1.92s-.66-1.91-1.74-1.91-1.74.73-1.74,1.91.66,1.92,1.74,1.92"/>
  </g>
  <polygon class="cls-4" points="51.36 8.49 50.64 8.49 49.98 11.3 49.92 11.3 49.16 8.49 48.47 8.49 47.71 11.3 47.65 11.3 46.99 8.49 46.25 8.49 47.27 12.18 48.02 12.18 48.78 9.46 48.84 9.46 49.6 12.18 50.35 12.18 51.36 8.49"/>
  <g class="cls-7">
    <path class="cls-4" d="M52.2,12.18h.73v-2.16c0-.58.34-.93.88-.93s.8.29.8.89v2.2h.73v-2.39c0-.88-.45-1.37-1.28-1.37-.56,0-.92.25-1.1.66h-.05v-.59h-.7v3.69Z"/>
  </g>
  <rect class="cls-4" x="56.48" y="7.05" width=".73" height="5.13"/>
  <g class="cls-6">
    <path class="cls-4" d="M59.95,11.6c-.63,0-.99-.46-.99-1.27s.36-1.27.99-1.27.99.47.99,1.27-.36,1.27-.99,1.27M59.95,12.25c1.08,0,1.74-.72,1.74-1.92s-.66-1.91-1.74-1.91-1.74.73-1.74,1.91.66,1.92,1.74,1.92"/>
    <path class="cls-4" d="M63.67,12.24c.49,0,.89-.21,1.11-.58h.06v.52h.7v-2.52c0-.78-.52-1.24-1.45-1.24-.84,0-1.43.41-1.51,1.04h.7c.08-.26.36-.41.77-.41.5,0,.76.22.76.61v.32l-1,.06c-.88.05-1.37.44-1.37,1.1s.52,1.1,1.23,1.1M63.85,11.62c-.4,0-.68-.19-.68-.52s.23-.5.74-.53l.9-.06v.31c0,.46-.41.81-.96.81"/>
    <path class="cls-4" d="M68.21,9.08c.61,0,.99.49.99,1.25s-.38,1.25-.99,1.25-.99-.47-.99-1.25.37-1.25.99-1.25M68,12.24c.51,0,.94-.24,1.16-.64h.06v.58h.7v-5.13h-.73v2.02h-.05c-.2-.41-.63-.65-1.13-.65-.93,0-1.53.74-1.53,1.9s.59,1.91,1.53,1.91"/>
    <path class="cls-4" d="M74.64,11.6c-.63,0-.99-.46-.99-1.27s.35-1.27.99-1.27.99.47.99,1.27-.36,1.27-.99,1.27M74.64,12.25c1.08,0,1.74-.72,1.74-1.92s-.66-1.91-1.74-1.91-1.74.73-1.74,1.91.66,1.92,1.74,1.92"/>
    <path class="cls-4" d="M77.34,12.18h.73v-2.16c0-.58.34-.93.88-.93s.8.29.8.89v2.2h.73v-2.39c0-.88-.45-1.37-1.28-1.37-.56,0-.92.25-1.1.66h-.05v-.59h-.7v3.69Z"/>
    <path class="cls-4" d="M83.82,7.57v.93h-.59v.61h.59v2.08c0,.71.32.99,1.13.99.14,0,.28-.02.4-.04v-.61c-.1.01-.17.02-.28.02-.36,0-.52-.17-.52-.56v-1.9h.8v-.61h-.8v-.93h-.73Z"/>
    <path class="cls-4" d="M86.33,12.18h.73v-2.15c0-.56.33-.93.93-.93.51,0,.79.3.79.89v2.2h.73v-2.38c0-.88-.48-1.37-1.27-1.37-.56,0-.94.25-1.12.66h-.06v-2.03h-.72v5.13Z"/>
    <path class="cls-4" d="M93.03,11.18c-.14.29-.44.45-.88.45-.58,0-.96-.41-.98-1.06v-.04h2.6v-.25c0-1.16-.62-1.86-1.65-1.86s-1.7.75-1.7,1.93.65,1.9,1.7,1.9c.84,0,1.43-.41,1.6-1.07h-.7ZM92.13,9.04c.54,0,.89.38.91.95h-1.86c.04-.58.42-.95.96-.95"/>
    <path class="cls-4" d="M23.04,16.53c.02-1.65.91-3.22,2.32-4.08-.89-1.27-2.38-2.08-3.93-2.12-1.65-.17-3.25.99-4.1.99s-2.15-.97-3.55-.94c-1.82.06-3.52,1.09-4.4,2.68-1.9,3.29-.48,8.14,1.34,10.8.91,1.3,1.98,2.76,3.37,2.71,1.36-.06,1.88-.87,3.52-.87s2.11.87,3.53.84c1.47-.02,2.39-1.31,3.27-2.63.66-.93,1.16-1.96,1.49-3.04-1.72-.73-2.87-2.46-2.87-4.33"/>
    <path class="cls-4" d="M20.35,8.57c.8-.96,1.19-2.19,1.1-3.43-1.22.13-2.35.71-3.16,1.63-.79.9-1.2,2.11-1.12,3.31,1.22.01,2.42-.55,3.18-1.5"/>
    <path class="cls-3" d="M7.31.87h102.39c3.47,0,6.28,2.33,6.28,5.21v20.84c0,2.88-2.81,5.21-6.28,5.21H7.31c-3.47,0-6.28-2.33-6.28-5.21V6.08C1.03,3.2,3.84.87,7.31.87Z"/>
  </g>
</svg>