<?xml version="1.0" encoding="UTF-8"?>
<svg id="Layer_1" data-name="Layer 1" xmlns="http://www.w3.org/2000/svg" xmlns:xlink="http://www.w3.org/1999/xlink" viewBox="0 0 78 78">
  <defs>
    <style>
      .cls-1 {
        clip-path: url(#clippath);
      }

      .cls-2 {
        fill: none;
      }

      .cls-2, .cls-3, .cls-4, .cls-5, .cls-6 {
        stroke-width: 0px;
      }

      .cls-3 {
        fill: #f8b6ab;
      }

      .cls-4 {
        fill: #231f20;
      }

      .cls-5 {
        fill: #fee4ca;
      }

      .cls-6 {
        fill: #fff;
      }
    </style>
    <clipPath id="clippath">
      <rect class="cls-2" x="6.55" y="8.58" width="64.9" height="60.84"/>
    </clipPath>
  </defs>
  <g class="cls-1">
    <path class="cls-5" d="M63.52,28.39c-.59.33-1.03.82-1.43,1.35-.05.07-.11.14-.18.22-.54-1.25-1.18-2.45-2.43-3.14-1.27-.71-2.83-.71-3.96.27-.45.39-.78.88-1.09,1.39-.09.15-.2.4-.32.63-.49-.7-.89-1.47-1.48-2.11-.93-1.01-2.21-1.57-3.6-1.46-1.99.15-3.4,1.28-4.48,2.74-.59-2.01-1.17-4.02-1.76-6.04-.75-2.56-1.36-5.32-2.81-7.6-1.21-1.91-2.98-3.32-5.26-3.66-.68-.1-1.35-.09-1.99.02-.27-.15-.59-.22-.98-.13-.71.17-1.32.54-1.78,1.04-.17.07-.34.19-.49.38-1.82,2.22-2.34,4.9-2.45,7.71-.13,3.24-.07,6.51-.09,9.76-.01,1.58.04,3.17-.04,4.74-.02.4-.01,1.12-.3,1.43-.43.46-2.21.89-2.73.68-2.7-1.09-4.26-3.57-7.19-3.95-2.3-.29-4.8.21-6.62,1.7-2.21,1.81-2.58,4.75-1.62,7.33,1.03,2.73,3.01,5.2,5.11,7.19,2.12,2.01,5.59,1.63,7.47,3.9,1.66,2.01,1.62,6.51,3.17,8.59,1.76,2.36,4.13,3.55,6.95,4.26,3.35.84,6.77,1.6,10.22,1.8,3.23.19,6.51-.02,9.72-.39,5.38-.63,10.78-2.19,14.13-6.75,3.31-4.5,3.94-10.53,4.21-15.95.15-2.92.28-19.38-5.9-15.93"/>
    <path class="cls-3" d="M67.57,52.66c-4.53,4.92-9.86,8.11-16.68,8.58-6.14.42-13.13-.21-18.54-3.3-2.34-1.34-4.6-3.1-6.06-5.4-.99-1.56-1.41-3.42-2.98-4.57-1.95-1.42-4.69-1.5-6.82-2.6-3.46-1.79-6.26-4.79-5.96-8.91.06-.77-1.19-1.15-1.51-.41-2.57,5.98.68,11.45,6.13,14.27,1.37.71,3.65.99,4.78,1.95,1.08.92,1.53,2.85,2.3,4.11,1.83,3.02,4.41,5.58,7.5,7.29,11.01,6.1,35.87,5.25,38.76-10.49.09-.5-.52-.98-.92-.54"/>
    <path class="cls-3" d="M32.58,10.91c-9.85,5.16-3.25,17.19-6.46,25.26-.13.33.2.63.49.65,3.33.19,3.07-3.98,3.12-6.34.12-5.84-1.68-15.18,3.39-19.32.55-.44.03-.55-.55-.25"/>
    <path class="cls-6" d="M66.39,38.37c-.34-1.81-3.48-1.42-3.26.44.31,2.62.03,5.23.34,7.83.2,1.66,2.44,2.15,3.01.41.91-2.8.44-5.83-.09-8.68"/>
    <path class="cls-6" d="M65.73,50.76c-.06-.69-.56-1.35-1.32-1.32-.7.03-1.34.58-1.32,1.32,0,.13,0,.27-.01.4-.01.05-.05.23-.06.27-.02.06-.03.12-.06.17.09-.2.06-.13-.09.23-.06.22-.05.47-.08.69-.06.48.36.96.76,1.13.48.2.96.07,1.35-.26.73-.62.92-1.72.84-2.64"/>
    <path class="cls-4" d="M21.06,51.21c-4.32-2.75-10.34-5.36-11.6-10.86-.53-2.3.35-4.53,2.61-5.46,2.7-1.11,5.29.23,7.68,1.46,2.27,1.16,6.12,3.26,7.88.2.81-1.4.57-3.23.56-4.78-.02-1.93-.03-3.87-.05-5.8-.03-3.47-.37-7.19.79-10.52.96-2.76,3.59-4.8,6.6-3.99,2.9.78,3.92,4.06,4.53,6.65,1,4.3,1.8,8.65,2.38,13.02.1.74.56,1.35,1.36,1.36.66,0,1.46-.63,1.36-1.36-.56-4.25-1.29-8.48-2.22-12.66-.65-2.92-1.48-6.12-3.87-8.13-2.45-2.07-5.99-2.31-8.77-.74-3.17,1.78-4.36,5.32-4.75,8.74-.47,4.13-.13,8.4-.1,12.54,0,.93.61,4.65-.88,4.55-1.6-.11-3.33-1.39-4.74-2.08-2.77-1.37-5.76-2.19-8.75-.98-2.6,1.06-4.35,3.38-4.53,6.19-.21,3.41,1.76,6.7,4.19,8.93,2.65,2.44,5.9,4.14,8.93,6.07,1.48.94,2.85-1.41,1.38-2.35"/>
    <path class="cls-4" d="M45.15,31.95c.26-1.82.78-4.85,2.81-5.56,2.33-.82,3.86,2.4,4.12,4.19.2,1.42,2.26,1.16,2.63,0,.45-1.42,1.64-3.03,3.32-2.78,1.13.17,2.99,1.34,2.69,2.7-.39,1.71,2.09,2.4,2.63.72.26-.81.59-1.65,1.52-1.33.9.31,1.65,1.23,2.11,2.02.59,1.01.77,2.28,1,3.41.3,1.5.49,3.02.6,4.55.43,5.95,0,12.78-3.14,18.02-5.81,9.66-20.02,9.85-29.79,7.92-6.86-1.35-11.36-6.82-13.52-13.2-.56-1.65-3.19-.94-2.63.72,2.22,6.55,6.62,12.42,13.42,14.59,2.99.96,6.31,1.25,9.43,1.42,3.27.18,6.56.03,9.8-.51,6.27-1.06,12.4-4.05,15.72-9.69,3.6-6.12,4.06-14.17,3.27-21.07-.37-3.23-.75-7-3.24-9.36-1.02-.97-2.36-1.76-3.81-1.62-1.85.18-2.85,1.78-3.37,3.4.88.24,1.75.48,2.63.72.65-2.89-1.88-5.5-4.59-6.05-3.21-.65-5.75,1.79-6.67,4.68h2.63c-.47-3.25-3.34-6.92-6.97-6.21-3.43.67-4.79,4.54-5.22,7.58-.1.73.18,1.45.95,1.67.64.18,1.57-.22,1.68-.95"/>
  </g>
</svg>