<?xml version="1.0" encoding="UTF-8"?>
<svg id="Layer_1" data-name="Layer 1" xmlns="http://www.w3.org/2000/svg" viewBox="0 0 60 45">
  <defs>
    <style>
      .cls-1 {
        fill-rule: evenodd;
      }

      .cls-1, .cls-2 {
        fill: #103928;
        stroke-width: 0px;
      }
    </style>
  </defs>
  <path class="cls-2" d="M11.01,35.16h-.02l-1.4-5.62h-1.68l-1.42,5.57h-.02l-1.29-5.56h-1.8l2.16,8.17h1.82l1.36-5.56h.02l1.38,5.56h1.78l2.2-8.17h-1.76l-1.34,5.62ZM19.59,32.29c-.17-.22-.4-.39-.66-.5-.34-.12-.71-.18-1.07-.17-.33,0-.65.09-.94.23-.33.17-.61.43-.79.75h-.03v-3.08h-1.62v8.17h1.62v-3.1c0-.6.1-1.03.3-1.3.2-.26.52-.39.96-.39.39,0,.66.12.81.36.15.24.23.6.23,1.09v3.34h1.62v-3.64c0-.34-.03-.67-.1-1-.05-.28-.17-.55-.34-.78h0ZM26.28,36.39v-3.07c.02-.31-.07-.61-.24-.86-.16-.22-.37-.39-.62-.51-.26-.13-.55-.21-.84-.25-.3-.04-.6-.06-.9-.06-.33,0-.66.03-.98.1-.31.06-.61.17-.88.33-.26.15-.48.36-.64.61-.18.29-.28.61-.29.95h1.62c0-.13.03-.26.09-.38.06-.12.14-.22.23-.31.22-.15.49-.22.75-.21.14,0,.27,0,.41.03.12.02.23.06.33.12.1.06.18.14.23.24.06.13.09.27.09.42,0,.07,0,.14-.03.21s-.07.13-.12.17c-.13.1-.28.17-.44.2-.21.05-.42.08-.63.1-.24.02-.48.05-.72.09-.25.03-.49.08-.73.14-.23.06-.45.16-.64.29-.19.14-.34.32-.45.54-.13.26-.19.54-.18.83,0,.27.05.54.15.79.1.21.24.4.43.55.19.15.41.26.64.32.26.07.52.1.79.1.36,0,.73-.06,1.08-.17.35-.11.66-.3.91-.56,0,.1.02.2.04.29.02.09.04.19.07.28h1.65c-.09-.17-.15-.36-.17-.55-.03-.25-.05-.51-.05-.77h0ZM24.66,35.41c0,.12-.01.25-.03.37-.02.16-.07.31-.15.45-.09.16-.23.29-.39.38-.23.12-.49.18-.74.17-.13,0-.25-.01-.38-.03-.11-.02-.22-.06-.32-.12-.09-.06-.17-.14-.22-.23-.06-.11-.08-.24-.08-.37,0-.13.02-.26.08-.38.05-.1.12-.18.21-.25.09-.07.2-.12.31-.15.12-.04.24-.07.36-.09.13-.02.26-.04.39-.06.13-.01.25-.03.37-.06.11-.02.22-.05.33-.09.09-.03.18-.08.26-.14v.6ZM29.31,30.01h-1.62v1.78h-.98v1.09h.98v3.49c-.01.25.04.5.15.72.09.18.23.32.41.43.18.1.39.17.6.2.24.03.48.05.71.05.17,0,.33,0,.5-.01.15,0,.31-.02.46-.05v-1.26c-.08.02-.16.03-.24.03-.08,0-.17.01-.26.01-.27,0-.46-.05-.55-.14-.09-.09-.14-.27-.14-.55v-2.94h1.19v-1.08h-1.19v-1.78ZM36.03,35.11c-.11-.19-.25-.35-.42-.47-.18-.13-.39-.23-.6-.3-.23-.08-.46-.14-.69-.19-.23-.05-.45-.1-.67-.15-.2-.04-.4-.09-.59-.15-.15-.05-.29-.12-.42-.22-.05-.04-.1-.1-.12-.16-.03-.06-.04-.13-.04-.2,0-.1.03-.21.09-.29.06-.07.14-.13.22-.17.09-.04.19-.06.29-.07.11,0,.21-.02.3-.02.26,0,.52.05.76.17.11.06.2.16.26.27.06.11.09.24.09.37h1.54c-.02-.32-.11-.63-.28-.91-.15-.23-.35-.43-.59-.58-.25-.15-.52-.25-.81-.31-.31-.06-.62-.09-.93-.09-.31,0-.63.03-.94.09-.29.05-.57.15-.83.3-.24.14-.45.34-.59.58-.16.29-.24.61-.22.94,0,.23.05.46.17.66.11.18.25.33.42.45.19.12.39.22.6.29.22.07.46.14.69.19.46.09.91.21,1.36.37.32.12.49.31.49.55,0,.13-.03.25-.1.36-.07.09-.16.17-.26.23-.11.06-.22.1-.34.13-.12.03-.24.04-.36.04-.16,0-.31-.02-.46-.06-.14-.04-.28-.1-.4-.18-.11-.08-.21-.19-.28-.31-.08-.14-.11-.29-.11-.45h-1.54c0,.33.08.65.23.93.16.28.39.52.66.69.27.17.57.28.88.34.33.07.67.1,1.01.1.33,0,.67-.03.99-.1.31-.06.6-.17.86-.33.27-.17.49-.41.64-.69.15-.28.22-.6.2-.92,0-.24-.05-.49-.16-.7h0ZM39.25,29.53l-3.09,8.17h1.81l.64-1.82h3.06l.62,1.82h1.86l-3.05-8.17h-1.85ZM39.09,34.54l1.06-3h.02l1.03,3h-2.12ZM49.77,32.59c-.22-.29-.5-.53-.83-.7-.38-.18-.79-.27-1.21-.26-.35,0-.69.07-1.01.22-.31.15-.58.4-.75.7h-.02v-.75h-1.55v7.99h1.63v-2.81h.02c.19.28.45.51.76.66.32.15.66.23,1.01.22.39,0,.78-.08,1.13-.26.32-.16.6-.39.81-.67.22-.29.39-.62.49-.97.11-.37.16-.76.17-1.14,0-.41-.06-.81-.17-1.21-.1-.37-.26-.71-.49-1.01h0ZM48.73,35.46c-.04.21-.12.42-.23.6-.12.19-.28.34-.47.44-.19.1-.41.15-.63.14-.23,0-.46-.05-.66-.17-.18-.1-.33-.25-.44-.42-.12-.18-.2-.39-.24-.6-.05-.22-.07-.45-.07-.68,0-.24.02-.48.07-.71.04-.22.12-.42.23-.61.11-.18.26-.32.44-.43.2-.12.43-.17.66-.17.23,0,.46.05.66.17.18.11.33.26.44.43.12.19.2.4.25.61.05.23.07.46.06.7,0,.23-.02.46-.06.69h0ZM56.73,33.6c-.1-.37-.27-.71-.5-1.01-.22-.29-.5-.53-.83-.7-.37-.18-.79-.27-1.2-.26-.35,0-.69.07-1.01.22-.31.15-.58.4-.75.7h-.01v-.75h-1.54v7.99h1.62v-2.81h.02c.19.28.45.51.76.66.32.15.66.23,1.01.22.39,0,.78-.08,1.14-.25.32-.16.59-.39.81-.67.22-.29.39-.62.49-.97.11-.37.17-.76.17-1.14,0-.41-.06-.82-.18-1.21h0ZM55.2,35.46c-.04.21-.12.42-.23.6-.19.27-.48.47-.81.54-.33.08-.67.03-.96-.12-.18-.1-.33-.25-.44-.42-.12-.18-.2-.39-.24-.6-.05-.23-.07-.46-.07-.7,0-.24.02-.48.07-.71.04-.22.12-.42.23-.61.11-.17.26-.32.43-.43.2-.12.43-.17.66-.17.23,0,.46.05.66.17.18.11.33.26.44.43.12.19.2.4.25.61.05.23.07.46.07.7,0,.23-.02.47-.06.7h0Z"/>
  <path class="cls-1" d="M36.48,7.8c-1.53-1.52-3.57-2.43-5.72-2.56-2.15-.14-4.28.51-6,1.83-1.71,1.31-2.89,3.2-3.32,5.32-.43,2.11-.08,4.31.99,6.19l-1.27,4.62,4.73-1.24c1.31.71,2.77,1.09,4.26,1.09h0c1.76,0,3.49-.53,4.95-1.51,1.47-.98,2.61-2.37,3.28-4,.68-1.63.85-3.42.51-5.15-.34-1.73-1.19-3.32-2.43-4.57h0ZM30.17,21.53c-1.33,0-2.63-.36-3.78-1.03l-.27-.17-2.81.74.75-2.73-.18-.28c-.87-1.39-1.26-3.04-1.1-4.67.16-1.64.86-3.17,1.99-4.37,1.13-1.19,2.63-1.98,4.25-2.23,1.63-.25,3.29.04,4.73.84,1.44.8,2.57,2.05,3.22,3.56.65,1.51.78,3.19.37,4.79-.41,1.59-1.34,3-2.64,4.01-1.3,1.01-2.9,1.55-4.54,1.56h0ZM34.23,15.97c-.22-.11-1.32-.65-1.52-.73-.2-.07-.35-.11-.5.11-.14.22-.58.72-.71.87s-.26.17-.48.06c-.66-.26-1.26-.63-1.79-1.1-.49-.45-.91-.97-1.24-1.55-.13-.22-.01-.34.1-.45.11-.11.22-.26.33-.39.09-.11.17-.24.22-.37.03-.06.04-.13.04-.2,0-.07-.02-.13-.06-.19-.05-.11-.5-1.21-.69-1.65-.19-.45-.37-.38-.5-.38-.13,0-.28,0-.43,0-.11,0-.22.03-.33.08-.1.05-.19.12-.27.2-.25.24-.45.52-.59.84-.14.32-.2.66-.2,1,0,1.1.8,2.15.91,2.31.11.16,1.57,2.4,3.8,3.37.41.18.84.34,1.27.47.46.14.94.17,1.4.09.43-.06,1.32-.54,1.51-1.06.18-.52.19-.97.13-1.06-.05-.09-.19-.15-.42-.26Z"/>
</svg>